#!OML:ASF H:\Not Pregnant\Project 1\Capture day 1\Session 1\non-pregnant.ASF
:FULLY-SPECIFIED
:DEGREES
419
root 6.96324 15.3501 37.0875 14.3856 -36.081 -9.03937
lowerback 0.256135 4.4709 3.23854
upperback -6.35962 6.07193 -0.261532
thorax -6.39836 2.81192 -2.40396
lowerneck 36.5603 -17.7956 -25.9316
upperneck -27.758 -28.9354 48.1445
head -0.780336 -19.6945 24.7955
rclavicle -4.94974e-014 -2.54444e-014
rhumerus 0.3261 67.4216 -98.7315
rradius 79.8285
rwrist 10.1115
rhand -15.3149 5.1135
rfingers 7.12502
rthumb 10.861 -24.5856
lclavicle -4.94974e-014 -2.54444e-014
lhumerus -64.1369 -0.999838 87.9234
lradius 51.113
lwrist 50.2764
lhand -28.2877 -10.9679
lfingers 7.12502
lthumb -1.66373 19.0054
rfemur -28.0515 22.2519 23.607
rtibia 38.1623
rfoot -17.4353 19.6072
rtoes -5.90584
lfemur -27.7627 -10.4833 -1.10931
ltibia 35.2456
lfoot -21.1514 -16.8
ltoes -32.1566
420
root 7.01233 15.3472 37.1429 14.3389 -37.023 -8.71854
lowerback 0.408142 4.43034 2.94091
upperback -6.39101 6.0041 -0.397798
thorax -6.53729 2.78588 -2.3945
lowerneck 36.5711 -17.6643 -25.967
upperneck -27.5653 -28.8366 48.1102
head -0.775661 -19.6415 24.8362
rclavicle -2.26118e-014 1.11319e-014
rhumerus 1.03691 68.4394 -98.3543
rradius 79.7508
rwrist 10.5339
rhand -14.4875 5.78503
rfingers 7.12502
rthumb 11.659 -23.8706
lclavicle -2.26118e-014 1.11319e-014
lhumerus -63.6784 -1.85877 88.4421
lradius 48.9776
lwrist 49.4932
lhand -27.0184 -10.5705
lfingers 7.12502
lthumb -0.43782 19.4088
rfemur -28.1483 22.8911 22.8345
rtibia 38.1641
rfoot -17.8556 19.5459
rtoes -5.68357
lfemur -27.4432 -9.96851 -1.91473
ltibia 35.2579
lfoot -21.5346 -16.1431
ltoes -32.4295
421
root 7.06173 15.347 37.1952 14.2723 -37.8969 -8.21254
lowerback 0.495243 4.37422 2.50778
upperback -6.45104 5.90251 -0.59599
thorax -6.67779 2.74879 -2.36877
lowerneck 36.5437 -17.5744 -25.958
upperneck -27.3716 -28.7642 48.0849
head -0.759983 -19.6041 24.8462
rclavicle 6.31141e-014 1.59028e-015
rhumerus 1.27161 69.2562 -98.4047
rradius 79.6103
rwrist 11.0532
rhand -13.6463 6.38526
rfingers 7.12502
rthumb 12.4701 -23.2227
lclavicle 6.31141e-014 1.59028e-015
lhumerus -63.0446 -2.78311 88.9045
lradius 46.5998
lwrist 48.4911
lhand -25.3499 -10.1173
lfingers 7.12502
lthumb 1.17363 19.8593
rfemur -28.4933 23.5171 21.8388
rtibia 38.3095
rfoot -18.2174 19.4731
rtoes -5.64319
lfemur -27.3487 -9.61705 -2.79761
ltibia 35.314
lfoot -21.7063 -15.5537
ltoes -32.7178
422
root 7.11074 15.3476 37.2448 14.2334 -38.6985 -7.58192
lowerback 0.509682 4.30179 1.96694
upperback -6.56015 5.76861 -0.826932
thorax -6.83738 2.7003 -2.31221
lowerneck 36.4952 -17.5112 -25.9259
upperneck -27.168 -28.7137 48.0539
head -0.735342 -19.5764 24.8267
rclavicle -1.12065e-013 -3.18055e-015
rhumerus 0.837656 69.8841 -99.05
rradius 79.4006
rwrist 11.6714
rhand -12.8052 6.92582
rfingers 7.12502
rthumb 13.2809 -22.631
lclavicle -1.12065e-013 -3.18055e-015
lhumerus -62.2634 -3.71418 89.2767
lradius 43.998
lwrist 47.1886
lhand -23.2734 -9.58775
lfingers 7.12502
lthumb 3.1791 20.3683
rfemur -29.1001 24.1233 20.6711
rtibia 38.6041
rfoot -18.5261 19.3788
rtoes -5.75988
lfemur -27.4861 -9.35811 -3.71288
ltibia 35.4194
lfoot -21.7321 -15.056
ltoes -32.9524
423
root 7.15888 15.3477 37.2929 14.2593 -39.4405 -6.92328
lowerback 0.438006 4.22403 1.41315
upperback -6.69252 5.62207 -1.07861
thorax -6.97147 2.64669 -2.26275
lowerneck 36.4122 -17.4793 -25.8625
upperneck -26.9675 -28.6828 48.0312
head -0.701623 -19.5597 24.7844
rclavicle 3.84151e-014 -7.95139e-016
rhumerus -0.211842 70.316 -100.249
rradius 79.1084
rwrist 12.3655
rhand -11.9987 7.38276
rfingers 7.12502
rthumb 14.0583 -22.1218
lclavicle 3.84151e-014 -7.95139e-016
lhumerus -61.3158 -4.64226 89.5242
lradius 41.22
lwrist 45.5181
lhand -20.8209 -8.99761
lfingers 7.12502
lthumb 5.54725 20.9098
rfemur -29.9157 24.7123 19.4269
rtibia 39.0109
rfoot -18.7845 19.2693
rtoes -5.9942
lfemur -27.8048 -9.12904 -4.59738
ltibia 35.5745
lfoot -21.7168 -14.6073
ltoes -33.2539
424
root 7.20619 15.3461 37.3401 14.3812 -40.1318 -6.34403
lowerback 0.304075 4.15742 0.946219
upperback -6.8432 5.49267 -1.32744
thorax -7.08038 2.59752 -2.25456
lowerneck 36.3477 -17.4506 -25.8126
upperneck -26.7825 -28.6673 48.0373
head -0.657201 -19.5573 24.7601
rclavicle 1.45113e-013 2.94201e-014
rhumerus -1.91472 70.5315 -102.009
rradius 78.7347
rwrist 13.1043
rhand -11.2523 7.73699
rfingers 7.12502
rthumb 14.7775 -21.7162
lclavicle 1.45113e-013 2.94201e-014
lhumerus -60.2363 -5.54987 89.6321
lradius 38.3294
lwrist 43.3837
lhand -18.0194 -8.36969
lfingers 7.12502
lthumb 8.2516 21.4492
rfemur -30.851 25.2897 18.2153
rtibia 39.4634
rfoot -18.9904 19.1482
rtoes -6.30459
lfemur -28.2418 -8.88729 -5.37661
ltibia 35.7725
lfoot -21.6985 -14.2157
ltoes -33.558
425
root 7.253 15.344 37.3877 14.5916 -40.7747 -5.91583
lowerback 0.146413 4.10004 0.634677
upperback -6.98886 5.38353 -1.55359
thorax -7.15716 2.55092 -2.30711
lowerneck 36.2994 -17.4129 -25.7901
upperneck -26.6167 -28.6574 48.0818
head -0.601083 -19.5654 24.7686
rclavicle -5.68524e-014 -4.77083e-015
rhumerus -4.19268 70.5472 -104.242
rradius 78.2937
rwrist 13.8431
rhand -10.6066 7.92892
rfingers 7.12502
rthumb 15.3994 -21.4775
lclavicle -5.68524e-014 -4.77083e-015
lhumerus -59.042 -6.33653 89.5344
lradius 35.4104
lwrist 40.6501
lhand -14.9346 -7.70357
lfingers 7.12502
lthumb 11.2278 21.976
rfemur -31.7826 25.8418 17.1282
rtibia 39.886
rfoot -19.1419 19.0381
rtoes -6.62933
lfemur -28.7075 -8.62981 -6.01277
ltibia 35.9939
lfoot -21.7082 -13.8628
ltoes -33.8711
